{"glyphs":{":":{"x_min":0,"x_max":259,"ha":259,"o":"m 129 90 q 151 90 167 75 q 182 60 182 38 q 182 16 167 1 q 152 -14 129 -14 q 107 -14 92 1 q 77 16 77 38 q 77 59 93 74 q 108 90 129 90 z m 129 357 q 151 357 167 342 q 182 328 182 306 q 182 284 167 269 q 152 254 129 254 q 107 254 92 269 q 77 284 77 306 q 77 327 93 342 q 108 357 129 357 z"},"$":{"x_min":0,"x_max":519,"ha":519,"o":"m 286 250 l 286 21 q 355 24 395 55 q 434 86 434 137 q 434 184 398 211 q 363 238 286 250 z m 247 565 q 178 562 141 535 q 104 509 104 463 q 104 421 140 394 q 176 367 247 356 z m 247 706 l 286 706 l 286 588 q 372 582 422 548 q 472 515 472 464 q 472 439 456 422 q 439 405 416 405 q 395 405 382 418 q 369 431 369 452 q 369 480 396 495 q 422 510 422 512 q 422 527 382 544 q 341 561 286 565 l 286 348 q 390 332 437 291 q 484 250 484 176 q 484 101 431 53 q 377 5 286 0 l 286 -119 l 247 -119 l 247 1 q 160 5 103 47 q 46 89 46 145 q 46 175 63 193 q 80 211 107 211 q 128 211 142 198 q 156 184 156 163 q 156 137 129 116 q 103 96 103 92 q 103 72 146 48 q 190 24 247 22 l 247 259 q 156 274 108 317 q 59 360 59 426 q 59 496 109 538 q 158 580 247 586 z"},"?":{"x_min":0,"x_max":403,"ha":403,"o":"m 192 90 q 214 90 229 75 q 244 60 244 38 q 244 16 229 1 q 214 -14 192 -14 q 170 -14 155 1 q 140 16 140 38 q 140 59 156 74 q 171 90 192 90 z m 247 290 l 268 290 l 268 284 q 268 213 250 175 q 232 136 200 136 q 178 136 165 154 q 152 171 152 202 q 152 253 196 352 q 204 367 207 375 q 231 429 240 463 q 249 497 249 527 q 249 570 233 594 q 217 619 189 619 q 151 619 122 575 q 93 530 93 467 q 93 433 100 415 q 108 397 122 397 q 137 397 144 420 q 152 443 152 489 q 152 500 151 513 q 149 526 145 553 l 166 553 q 170 533 172 516 q 174 500 174 483 q 174 432 160 404 q 146 375 121 375 q 97 375 83 399 q 70 423 70 466 q 70 541 108 593 q 146 645 199 645 q 250 645 285 607 q 319 569 319 513 q 319 455 251 364 q 234 340 225 327 q 195 283 185 256 q 174 229 174 202 q 174 182 181 170 q 188 159 201 159 q 223 159 234 192 q 246 225 247 290 z"},"<":{"x_min":0,"x_max":833,"ha":833,"o":"m 704 559 l 704 497 l 216 298 l 704 100 l 704 37 l 129 273 l 129 323 z"},"'":{"x_min":0,"x_max":170,"ha":170,"o":"m 93 422 l 77 422 l 45 645 q 44 649 44 653 q 44 657 44 664 q 44 688 54 701 q 65 714 85 714 q 105 714 116 701 q 127 688 127 665 q 127 661 125 648 q 125 646 125 645 z"},"=":{"x_min":0,"x_max":833,"ha":833,"o":"m 124 233 l 709 233 l 709 176 l 124 176 z m 124 420 l 709 420 l 709 363 l 124 363 z"},"a":{"x_min":0,"x_max":479,"ha":479,"o":"m 303 240 q 216 228 173 191 q 130 153 130 90 q 130 51 148 29 q 166 6 197 6 q 244 6 274 52 q 303 99 303 176 z m 380 264 l 380 76 q 380 32 385 19 q 390 6 403 6 q 422 6 436 36 q 449 67 449 115 l 449 124 l 467 124 q 467 117 466 107 q 466 97 466 95 q 466 42 443 11 q 420 -19 381 -19 q 347 -19 327 5 q 308 30 306 74 q 287 27 252 4 q 217 -19 166 -19 q 109 -19 74 11 q 39 41 39 89 q 39 157 103 198 q 167 239 303 259 l 303 312 q 303 369 282 394 q 262 418 214 418 q 176 418 147 405 q 117 391 117 378 q 117 376 127 370 q 168 348 168 319 q 168 300 153 286 q 138 272 117 272 q 94 272 78 288 q 63 305 63 330 q 63 375 109 407 q 155 438 224 438 q 264 438 298 426 q 331 413 350 391 q 366 372 373 347 q 380 321 380 264 z"},"L":{"x_min":0,"x_max":659,"ha":659,"o":"m 16 662 l 370 662 l 370 641 q 286 639 263 619 q 241 600 241 532 l 241 114 q 241 54 258 38 q 274 21 346 21 q 474 21 531 96 q 588 171 600 353 l 619 353 l 619 0 l 16 0 l 16 21 q 101 23 123 43 q 145 62 145 130 l 145 532 q 145 599 123 619 q 101 639 16 641 z"},"3":{"x_min":0,"x_max":519,"ha":519,"o":"m 282 341 q 360 324 404 279 q 447 233 447 168 q 447 88 391 38 q 334 -12 244 -12 q 161 -12 107 30 q 53 73 53 136 q 53 171 71 192 q 89 214 117 214 q 139 214 152 200 q 165 186 165 163 q 165 127 130 109 q 95 91 95 84 q 95 62 137 37 q 179 11 231 11 q 293 11 323 51 q 352 90 352 174 q 352 250 324 290 q 296 329 242 329 q 230 329 210 323 q 189 318 181 318 q 167 318 161 321 q 155 325 155 332 q 155 342 163 345 q 170 349 197 349 q 279 349 312 383 q 345 416 345 497 q 345 567 317 600 q 290 634 232 634 q 183 634 148 614 q 114 593 114 565 q 114 564 143 547 q 172 531 172 499 q 172 476 159 462 q 146 448 124 448 q 101 448 85 468 q 70 487 70 518 q 70 576 118 617 q 167 658 237 658 q 323 658 380 614 q 436 569 436 503 q 436 445 395 402 q 354 358 282 341 z"},";":{"x_min":0,"x_max":259,"ha":259,"o":"m 89 -197 l 57 -197 q 98 -154 123 -109 q 148 -64 148 -36 q 148 -23 131 -20 q 127 -20 125 -19 q 96 -14 81 0 q 67 15 67 38 q 67 61 82 75 q 97 90 121 90 q 152 90 172 68 q 192 45 192 10 q 192 -34 165 -89 q 138 -143 89 -197 z m 129 357 q 151 357 167 342 q 182 328 182 306 q 182 284 167 269 q 152 254 129 254 q 107 254 92 269 q 77 284 77 306 q 77 327 93 342 q 108 357 129 357 z"},"J":{"x_min":0,"x_max":558,"ha":558,"o":"m 189 662 l 544 662 l 544 641 q 459 639 437 619 q 414 599 414 532 l 414 232 q 414 103 364 39 q 314 -24 213 -24 q 134 -24 80 22 q 27 68 27 133 q 27 178 54 208 q 82 238 122 238 q 150 238 169 218 q 188 198 188 167 q 188 134 169 116 q 151 97 118 97 q 105 97 92 101 q 79 105 78 105 q 74 105 72 102 q 69 98 69 93 q 69 56 108 27 q 146 -2 202 -2 q 266 -2 292 40 q 319 82 319 188 l 319 532 q 319 599 297 619 q 274 639 189 641 z"},"V":{"x_min":0,"x_max":648,"ha":648,"o":"m -31 662 l 320 662 l 320 641 q 318 641 315 641 q 194 638 194 600 q 194 594 196 586 q 197 578 203 561 l 361 112 l 484 458 q 495 488 500 512 q 506 536 506 551 q 506 599 477 619 q 448 640 380 641 l 380 662 l 683 662 l 683 641 q 621 639 585 604 q 549 570 512 468 l 337 -14 l 313 -14 l 105 562 q 87 611 62 626 q 37 641 -31 641 z"},"\"":{"x_min":0,"x_max":331,"ha":331,"o":"m 253 422 l 238 422 l 206 645 q 206 646 206 648 q 204 659 204 664 q 204 688 215 701 q 226 714 246 714 q 266 714 276 701 q 287 688 287 665 q 287 658 287 654 q 287 649 286 645 z m 93 422 l 77 422 l 46 645 q 45 653 44 658 q 44 662 44 665 q 44 688 55 701 q 65 714 85 714 q 105 714 116 701 q 127 688 127 665 q 127 661 125 648 q 125 646 125 645 z"},"7":{"x_min":0,"x_max":519,"ha":519,"o":"m 100 648 l 481 648 q 399 525 359 423 q 319 320 312 217 q 310 184 309 127 q 307 -13 256 -13 q 231 -13 217 8 q 203 29 203 67 q 203 152 254 276 q 305 400 409 570 l 222 570 q 143 570 121 547 q 99 523 86 427 l 63 427 z"},"S":{"x_min":0,"x_max":581,"ha":581,"o":"m 485 676 l 505 676 l 505 404 l 485 404 q 448 532 386 598 q 325 664 244 664 q 188 664 153 632 q 117 600 117 551 q 117 494 161 457 q 205 420 326 384 q 462 342 509 297 q 556 251 556 173 q 556 89 500 33 q 443 -23 358 -23 q 309 -23 269 -7 q 229 8 188 45 q 165 66 154 72 q 144 78 134 78 q 116 78 102 54 q 88 30 82 -13 l 61 -13 l 72 283 l 96 283 q 121 156 192 77 q 263 -1 352 -1 q 415 -1 456 34 q 496 69 496 123 q 496 181 452 219 q 407 256 280 296 q 159 333 110 379 q 61 425 61 496 q 61 575 114 630 q 167 685 245 685 q 287 685 321 671 q 356 657 387 627 q 391 624 397 617 q 423 591 438 591 q 457 591 467 609 q 477 627 485 676 z"},"}":{"x_min":0,"x_max":500,"ha":500,"o":"m 87 740 l 92 740 q 197 740 237 704 q 277 668 277 571 l 277 467 q 277 390 305 361 q 333 333 414 325 l 414 296 q 334 290 306 260 q 277 231 277 154 l 277 50 q 277 -47 237 -83 q 197 -119 92 -119 l 87 -119 l 87 -94 q 157 -93 182 -68 q 207 -42 207 34 l 207 104 q 207 214 237 255 q 267 295 347 310 q 267 325 237 365 q 207 406 207 516 l 207 586 q 207 662 182 688 q 156 714 87 715 z"},"Z":{"x_min":0,"x_max":611,"ha":611,"o":"m 94 662 l 568 662 l 568 643 l 131 21 l 297 21 q 399 21 453 84 q 507 147 531 296 l 553 296 l 548 0 l 19 0 l 19 19 l 456 641 l 344 641 q 239 641 186 586 q 134 531 111 397 l 90 397 z"},"x":{"x_min":0,"x_max":458,"ha":458,"o":"m -8 419 l 213 419 l 213 399 q 181 399 170 396 q 159 393 159 384 q 159 376 169 362 q 171 359 172 358 l 247 258 l 294 318 q 304 331 309 343 q 314 354 314 364 q 314 379 299 388 q 285 396 252 399 l 252 419 l 456 419 l 456 399 q 413 395 381 376 q 349 357 318 319 l 258 242 l 382 75 q 405 44 425 32 q 446 21 478 21 l 483 21 l 483 0 l 242 0 l 242 21 l 249 21 q 277 21 292 27 q 306 33 306 44 q 306 50 302 60 q 297 69 285 85 l 212 186 l 150 105 q 140 91 135 80 q 130 68 130 59 q 130 38 147 30 q 164 21 207 21 l 207 0 l -16 0 l -16 20 q 28 24 61 44 q 94 64 133 114 l 200 201 l 81 359 q 64 382 46 390 q 28 397 -8 399 z"},")":{"x_min":0,"x_max":359,"ha":359,"o":"m 65 688 q 160 622 217 505 q 274 388 274 257 q 274 126 217 9 q 161 -108 65 -174 l 65 -151 q 132 -93 168 11 q 203 116 203 257 q 203 397 167 502 q 132 607 65 665 z"},"&":{"x_min":0,"x_max":609,"ha":609,"o":"m 187 365 q 146 336 127 304 q 108 271 108 230 q 108 153 154 93 q 200 33 259 33 q 281 33 300 43 q 319 52 344 77 q 301 143 262 215 q 223 287 187 365 z m 259 412 q 296 328 380 183 q 391 164 396 155 q 429 208 448 253 q 467 298 467 322 q 467 350 443 364 q 419 378 371 379 l 371 401 l 606 401 l 606 379 q 541 376 459 224 q 429 167 410 134 q 432 95 458 73 q 484 51 509 51 q 544 51 565 89 q 585 126 585 194 l 585 199 l 607 199 l 607 195 q 607 92 574 36 q 541 -20 482 -20 q 449 -20 417 0 q 386 19 356 59 q 328 22 289 1 q 249 -20 209 -20 q 133 -20 80 37 q 28 94 28 175 q 28 237 65 289 q 103 340 180 385 q 166 423 159 454 q 153 485 153 511 q 153 584 196 635 q 239 685 302 685 q 346 685 378 657 q 410 630 410 591 q 410 549 371 503 q 333 457 259 412 z m 249 432 q 301 464 328 504 q 355 543 355 589 q 355 626 339 646 q 323 666 294 666 q 258 666 236 640 q 213 615 213 573 q 213 544 222 508 q 231 471 249 432 z"},"_":{"x_min":0,"x_max":500,"ha":500,"o":"m 0 -178 l 500 -178 l 500 -236 l 0 -236 z"},"v":{"x_min":0,"x_max":433,"ha":433,"o":"m -28 419 l 219 419 l 219 398 q 180 397 162 391 q 144 385 144 373 q 144 364 146 356 q 147 348 152 336 l 250 77 l 328 280 q 335 298 339 316 q 343 334 343 347 q 343 370 327 382 q 312 394 275 399 l 275 419 l 458 419 l 458 399 q 424 397 400 372 q 376 347 351 284 l 232 -19 l 212 -19 l 82 317 q 64 364 41 381 q 19 397 -28 399 z"},"O":{"x_min":0,"x_max":694,"ha":694,"o":"m 347 664 q 248 664 204 588 q 161 512 161 331 q 161 150 204 74 q 248 -2 347 -2 q 447 -2 490 74 q 534 150 534 331 q 534 512 490 588 q 447 664 347 664 z m 347 685 q 394 685 435 669 q 477 654 513 623 q 578 568 615 490 q 652 412 652 331 q 652 250 615 172 q 578 95 513 39 q 478 9 435 -7 q 393 -23 347 -23 q 311 -23 276 -12 q 241 -2 209 19 q 135 67 88 154 q 42 240 42 331 q 42 401 70 469 q 99 538 151 594 q 194 640 242 663 q 291 685 347 685 z"},"(":{"x_min":0,"x_max":359,"ha":359,"o":"m 294 688 l 294 665 q 228 607 192 502 q 156 397 156 257 q 156 116 191 11 q 227 -93 294 -151 l 294 -174 q 198 -108 142 9 q 85 126 85 257 q 85 388 142 505 q 198 622 294 688 z"},"C":{"x_min":0,"x_max":639,"ha":639,"o":"m 567 684 l 591 684 l 591 385 l 570 385 q 547 516 482 589 q 417 663 325 663 q 241 663 201 586 q 161 509 161 345 q 161 162 207 81 q 252 -1 354 -1 q 451 -1 511 66 q 570 134 575 250 l 597 250 q 590 121 525 49 q 459 -23 349 -23 q 298 -23 255 -6 q 212 10 173 45 q 111 100 77 175 q 43 250 43 331 q 43 395 66 458 q 89 521 132 573 q 177 628 228 656 q 279 684 337 684 q 371 684 407 669 q 444 654 476 627 q 481 623 490 614 q 514 592 526 592 q 539 592 549 615 q 560 639 567 684 z"},"W":{"x_min":0,"x_max":887,"ha":887,"o":"m -39 662 l 247 662 l 247 641 q 210 641 192 633 q 175 625 175 607 q 175 600 178 584 q 182 567 188 549 l 325 138 l 427 500 l 395 587 q 383 618 363 628 q 342 639 288 641 l 288 662 l 578 662 l 578 641 q 518 639 505 632 q 491 625 491 607 q 491 598 494 585 q 497 572 503 554 l 644 136 l 730 459 q 735 480 738 500 q 741 521 741 539 q 741 589 715 614 q 688 638 630 641 l 630 662 l 913 662 l 913 641 q 849 635 815 599 q 782 562 753 456 l 625 -14 l 600 -14 l 439 469 l 304 -14 l 282 -14 l 92 553 q 75 603 48 621 q 21 640 -39 641 z"},"A":{"x_min":0,"x_max":655,"ha":655,"o":"m 404 250 l 303 547 l 202 250 z m 351 676 l 544 128 q 570 54 594 37 q 618 21 672 21 l 687 21 l 687 0 l 341 0 l 341 21 q 423 22 444 30 q 464 38 464 60 q 464 68 462 78 q 459 87 454 103 l 411 228 l 195 228 l 184 196 q 176 172 171 150 q 167 128 167 113 q 167 69 198 45 q 230 21 287 21 l 294 21 l 294 0 l -33 0 l -33 21 q 33 21 83 68 q 132 115 164 208 l 325 676 z"},"f":{"x_min":0,"x_max":325,"ha":325,"o":"m 179 515 l 179 419 l 316 419 l 316 387 l 179 387 l 179 67 q 179 39 189 30 q 199 21 244 21 l 314 21 l 314 0 l 24 0 l 24 21 l 54 21 q 84 21 93 29 q 102 37 102 67 l 102 387 l 18 387 l 18 419 l 102 419 q 102 535 147 600 q 191 665 270 665 q 317 665 349 637 q 381 609 381 569 q 381 541 364 522 q 346 503 321 503 q 298 503 284 518 q 269 533 269 555 q 269 588 298 605 q 327 622 327 622 q 327 631 311 639 q 295 647 273 647 q 227 647 203 613 q 179 580 179 515 z"},"Q":{"x_min":0,"x_max":694,"ha":694,"o":"m 387 3 q 388 12 388 22 q 388 32 388 49 q 388 98 371 124 q 354 150 321 150 q 293 150 274 131 q 255 112 255 85 q 255 45 281 22 q 308 -1 352 -1 q 359 -1 367 0 q 375 1 387 3 z m 464 7 l 464 4 q 464 -44 487 -74 q 509 -103 546 -103 q 581 -103 602 -75 q 622 -47 622 1 l 622 7 l 646 7 l 646 -23 q 646 -100 612 -144 q 579 -187 519 -187 q 459 -187 423 -145 q 387 -103 387 -32 l 387 -19 q 377 -21 368 -21 q 359 -22 351 -22 q 321 -22 291 -16 q 261 -9 239 2 q 213 15 192 31 q 171 46 152 67 q 100 123 71 192 q 42 261 42 331 q 42 411 79 489 q 117 567 182 624 q 216 654 259 669 q 301 685 347 685 q 393 685 436 669 q 478 654 512 624 q 578 567 615 489 q 652 411 652 331 q 652 232 600 143 q 549 53 464 7 z m 460 38 q 499 70 517 137 q 534 205 534 331 q 534 512 490 588 q 447 664 347 664 q 248 664 204 588 q 161 512 161 331 q 161 201 181 130 q 201 59 244 30 q 238 41 234 54 q 231 66 231 80 q 231 126 262 156 q 293 186 341 186 q 394 186 425 147 q 456 108 460 38 z"},"w":{"x_min":0,"x_max":639,"ha":639,"o":"m -27 419 l 192 419 l 192 398 q 152 396 144 390 q 135 385 135 370 q 135 364 138 349 q 142 334 147 318 l 225 87 l 313 322 q 303 369 288 383 q 272 398 238 398 l 230 398 l 230 419 l 444 419 l 444 398 q 442 398 438 397 q 377 394 377 371 q 377 363 379 352 q 381 342 385 331 l 466 89 l 535 287 q 542 309 545 322 q 548 335 548 345 q 548 368 531 381 q 515 394 479 399 l 479 419 l 654 419 l 654 399 q 621 395 599 372 q 578 350 560 298 l 447 -19 l 427 -19 l 322 293 l 206 -19 l 187 -19 l 74 312 q 57 362 37 379 q 17 396 -27 399 z"},"-":{"x_min":0,"x_max":312,"ha":312,"o":"m 44 251 l 269 251 l 269 182 l 44 182 z"},"E":{"x_min":0,"x_max":697,"ha":697,"o":"m 16 662 l 608 662 l 608 410 l 586 410 q 565 534 503 588 q 441 641 316 641 q 270 641 256 624 q 241 607 241 549 l 241 348 l 249 348 q 337 348 376 387 q 416 425 421 517 l 441 517 l 441 156 l 421 156 q 411 251 376 289 q 340 326 260 326 l 241 326 l 241 117 q 241 52 256 37 q 271 22 327 22 q 456 22 522 86 q 587 151 601 290 l 622 290 l 622 0 l 16 0 l 16 21 q 101 23 123 43 q 145 62 145 130 l 145 532 q 145 599 123 619 q 101 639 16 641 z"},"s":{"x_min":0,"x_max":398,"ha":398,"o":"m 322 435 l 341 435 l 341 264 l 322 264 q 300 335 260 376 q 219 416 170 416 q 136 416 117 399 q 98 382 98 352 q 98 321 117 302 q 135 282 190 260 q 304 214 338 182 q 372 149 372 103 q 372 49 335 16 q 298 -17 238 -17 q 193 -17 149 11 q 106 40 101 40 q 90 40 82 28 q 74 15 65 -18 l 47 -18 l 47 175 l 64 175 q 91 92 135 47 q 180 2 234 2 q 269 2 291 21 q 312 41 312 72 q 312 101 295 119 q 278 138 219 163 q 106 212 76 243 q 45 275 45 320 q 45 369 80 402 q 115 436 167 436 q 210 436 250 412 q 289 387 291 387 q 300 387 308 399 q 316 412 322 435 z"},">":{"x_min":0,"x_max":833,"ha":833,"o":"m 129 559 l 704 323 l 704 273 l 129 37 l 129 100 l 617 298 l 129 497 z"},"l":{"x_min":0,"x_max":252,"ha":252,"o":"m 10 657 l 165 657 l 165 67 q 165 38 173 29 q 182 21 211 21 l 239 21 l 239 0 l 10 0 l 10 21 l 40 21 q 71 21 79 29 q 88 37 88 67 l 88 535 q 88 600 73 617 q 58 635 10 637 z"},"8":{"x_min":0,"x_max":519,"ha":519,"o":"m 221 302 q 170 278 146 242 q 121 206 121 154 q 121 87 159 48 q 196 10 262 10 q 327 10 370 47 q 413 85 413 140 q 413 200 373 234 q 333 269 221 302 z m 339 363 q 404 341 435 300 q 466 258 466 195 q 466 104 407 46 q 348 -11 255 -11 q 171 -11 118 34 q 65 80 65 150 q 65 204 97 244 q 129 283 196 312 q 143 336 115 378 q 88 420 88 479 q 88 558 139 609 q 190 660 269 660 q 344 660 392 620 q 440 580 440 517 q 440 475 415 437 q 390 399 339 363 z m 312 371 q 353 397 373 434 q 394 470 394 516 q 394 573 360 606 q 325 638 264 638 q 206 638 168 606 q 130 573 130 524 q 130 473 174 435 q 219 398 312 371 z"},"\\":{"x_min":0,"x_max":278,"ha":278,"o":"m -30 685 l 25 685 l 338 -91 l 284 -91 z"},"e":{"x_min":0,"x_max":421,"ha":421,"o":"m 396 218 l 117 218 l 117 192 q 117 99 148 52 q 179 6 242 6 q 293 6 327 38 q 361 70 371 128 l 392 128 q 384 61 340 21 q 296 -18 230 -18 q 147 -18 89 48 q 31 114 31 206 q 31 296 91 367 q 150 437 224 437 q 294 437 343 376 q 391 315 396 218 z m 221 237 q 277 237 291 248 q 305 260 305 298 q 305 357 283 387 q 262 418 220 418 q 170 418 144 376 q 118 333 118 254 l 118 237 z"},"b":{"x_min":0,"x_max":490,"ha":490,"o":"m 372 204 q 372 309 346 359 q 320 410 267 410 q 212 410 179 352 q 145 294 145 198 q 145 106 177 54 q 208 1 262 1 q 317 1 344 52 q 372 102 372 204 z m -12 657 l 145 657 l 145 325 q 161 375 196 403 q 231 431 275 431 q 354 431 406 366 q 459 301 459 203 q 459 112 403 47 q 347 -17 266 -17 q 221 -17 187 7 q 153 31 132 77 l 129 77 l 91 -14 l 69 -14 l 69 535 q 69 599 53 617 q 38 635 -12 637 z"},"%":{"x_min":0,"x_max":829,"ha":829,"o":"m 675 322 q 649 322 627 307 q 605 292 587 262 q 562 221 544 167 q 527 114 527 80 q 527 46 543 27 q 560 9 591 9 q 656 9 707 78 q 758 146 758 232 q 758 273 735 298 q 713 322 675 322 z m 665 343 q 718 343 749 313 q 779 284 779 232 q 779 136 722 63 q 665 -10 589 -10 q 530 -10 495 26 q 459 62 459 122 q 459 209 523 276 q 587 343 665 343 z m 299 620 q 288 624 279 626 q 271 628 262 628 q 237 628 215 613 q 194 598 175 567 q 150 526 133 473 q 116 419 116 385 q 116 351 133 332 q 149 314 180 314 q 244 314 295 383 q 346 452 346 537 q 346 551 340 582 l 340 585 q 327 592 316 601 q 306 609 299 620 z m 615 675 l 644 672 l 122 -191 l 78 -191 l 564 611 q 530 589 494 577 q 457 565 423 565 q 406 565 391 568 q 375 570 362 575 q 364 566 365 557 q 366 548 366 538 q 366 440 309 368 q 252 295 176 295 q 117 295 81 331 q 46 367 46 427 q 46 515 110 581 q 175 648 253 648 q 282 648 304 639 q 326 629 353 602 q 359 596 379 590 q 399 584 421 584 q 465 584 520 609 q 574 634 615 675 z"},"m":{"x_min":0,"x_max":771,"ha":771,"o":"m 430 298 q 448 359 484 393 q 520 427 565 427 q 625 427 656 379 q 688 332 688 240 l 688 67 q 688 37 696 29 q 705 21 734 21 l 766 21 l 766 0 l 537 0 l 537 21 l 565 21 q 595 21 603 30 q 611 38 611 67 l 611 320 q 611 362 597 382 q 583 403 554 403 q 501 403 466 338 q 431 273 431 168 l 431 67 q 431 38 440 29 q 448 21 478 21 l 503 21 l 503 0 l 292 0 l 292 21 l 308 21 q 337 21 346 30 q 354 38 354 67 l 354 320 q 354 362 340 382 q 326 403 297 403 q 244 403 209 338 q 174 273 174 168 l 174 67 q 174 38 182 29 q 191 21 220 21 l 249 21 l 249 0 l 20 0 l 20 21 l 49 21 q 80 21 88 29 q 97 37 97 67 l 97 332 q 97 376 84 387 q 71 398 25 398 l 14 398 l 14 419 l 174 424 l 174 299 q 190 358 227 393 q 264 427 309 427 q 357 427 388 394 q 419 361 430 298 z"},"#":{"x_min":0,"x_max":769,"ha":769,"o":"m 342 424 l 293 284 l 434 284 l 484 424 z m 380 711 l 445 711 l 363 481 l 503 481 l 585 711 l 649 711 l 568 481 l 718 481 l 698 424 l 547 424 l 498 284 l 660 284 l 639 228 l 478 228 l 397 -1 l 332 -1 l 413 228 l 273 228 l 192 -1 l 128 -1 l 209 228 l 51 228 l 72 284 l 229 284 l 278 424 l 108 424 l 129 481 l 299 481 z"},",":{"x_min":0,"x_max":259,"ha":259,"o":"m 89 -197 l 57 -197 q 98 -154 123 -109 q 148 -64 148 -36 q 148 -23 131 -20 q 127 -20 125 -19 q 96 -14 81 0 q 67 15 67 38 q 67 61 82 75 q 97 90 121 90 q 152 90 172 68 q 192 45 192 10 q 192 -34 165 -89 q 138 -143 89 -197 z"},"n":{"x_min":0,"x_max":525,"ha":525,"o":"m 442 269 l 442 67 q 442 38 450 29 q 459 21 489 21 l 521 21 l 521 0 l 291 0 l 291 21 l 319 21 q 349 21 357 30 q 365 38 365 67 l 365 320 q 365 363 350 384 q 334 406 304 406 q 247 406 210 341 q 174 275 174 168 l 174 67 q 174 38 182 29 q 191 21 220 21 l 249 21 l 249 0 l 20 0 l 20 21 l 49 21 q 80 21 88 29 q 97 37 97 67 l 97 332 q 97 376 84 387 q 71 398 25 398 l 14 398 l 14 419 l 174 424 l 174 300 q 192 362 230 396 q 268 429 320 429 q 381 429 412 389 q 442 350 442 269 z"},"h":{"x_min":0,"x_max":516,"ha":516,"o":"m 8 657 l 165 657 l 165 300 q 184 362 221 396 q 259 429 311 429 q 372 429 403 389 q 433 350 433 269 l 433 67 q 433 38 442 29 q 450 21 480 21 l 512 21 l 512 0 l 282 0 l 282 21 l 310 21 q 340 21 348 30 q 356 38 356 67 l 356 320 q 356 363 341 384 q 325 406 295 406 q 238 406 202 341 q 165 275 165 168 l 165 67 q 165 38 173 29 q 182 21 211 21 l 239 21 l 239 0 l 10 0 l 10 21 l 40 21 q 71 21 79 29 q 88 37 88 67 l 88 535 q 88 600 73 617 q 57 635 8 637 z"},"z":{"x_min":0,"x_max":417,"ha":417,"o":"m 70 419 l 387 419 l 387 402 l 112 20 l 202 20 q 276 20 311 54 q 345 88 361 177 l 381 177 l 378 0 l 20 0 l 20 17 l 297 399 l 232 399 q 159 399 127 366 q 95 334 86 251 l 67 251 z"},"B":{"x_min":0,"x_max":704,"ha":704,"o":"m 241 339 l 241 119 q 241 46 256 34 q 271 21 341 21 q 443 21 491 58 q 539 95 539 173 q 539 260 484 300 q 429 339 307 339 z m 340 359 q 428 359 470 393 q 512 427 512 498 q 512 573 466 607 q 419 641 315 641 q 266 641 253 631 q 241 621 241 562 l 241 359 z m 16 662 l 335 662 q 459 662 540 614 q 620 566 620 499 q 620 441 568 404 q 516 366 410 348 q 527 331 593 286 q 658 242 658 180 q 658 95 569 48 q 480 0 320 0 l 16 0 l 16 21 q 101 23 123 43 q 145 62 145 130 l 145 532 q 145 599 123 619 q 101 639 16 641 z"},"K":{"x_min":0,"x_max":728,"ha":728,"o":"m 16 662 l 370 662 l 370 641 q 286 639 263 619 q 241 600 241 532 l 241 306 l 471 526 q 489 543 498 559 q 507 575 507 589 q 507 612 485 625 q 462 638 418 642 l 418 662 l 744 662 l 744 641 q 682 640 623 612 q 565 584 504 527 l 401 429 l 578 131 q 615 69 655 45 q 694 21 756 21 l 764 21 l 764 0 l 418 0 l 418 21 q 468 21 488 28 q 507 35 507 51 q 507 60 503 71 q 500 81 493 94 l 335 368 l 241 278 l 241 130 q 241 62 263 43 q 285 23 370 21 l 370 0 l 16 0 l 16 21 q 101 23 123 43 q 145 62 145 130 l 145 532 q 145 599 123 619 q 101 639 16 641 z"},"R":{"x_min":0,"x_max":687,"ha":687,"o":"m 298 362 q 404 362 456 398 q 508 434 508 507 q 508 576 462 608 q 417 641 321 641 q 266 641 254 632 q 241 624 241 598 l 241 570 l 241 362 z m 16 662 l 318 662 q 461 662 537 622 q 613 582 613 507 q 613 440 553 400 q 494 360 378 349 q 442 337 484 302 q 525 267 547 206 q 559 174 563 127 q 567 81 569 73 q 574 52 583 41 q 593 31 608 31 q 634 31 649 69 q 664 107 664 175 q 664 182 664 189 q 664 197 663 206 l 684 206 q 685 197 685 189 q 685 181 685 175 q 685 81 656 32 q 627 -17 571 -17 q 516 -17 485 27 q 453 72 450 153 q 450 160 449 175 q 446 283 398 316 q 379 328 352 334 q 324 341 288 341 l 241 341 l 241 130 q 241 62 264 42 q 287 23 379 21 l 379 0 l 16 0 l 16 21 q 101 23 123 43 q 145 62 145 130 l 145 532 q 145 599 123 619 q 101 639 16 641 z"},"T":{"x_min":0,"x_max":662,"ha":662,"o":"m 55 662 l 606 662 l 613 380 l 593 380 q 552 536 512 589 q 471 641 402 641 l 378 641 l 378 130 q 378 63 400 43 q 422 23 508 21 l 508 0 l 153 0 l 153 21 q 239 23 261 43 q 283 63 283 130 l 283 641 l 260 641 q 191 641 150 588 q 110 535 69 380 l 49 380 z"},"P":{"x_min":0,"x_max":644,"ha":644,"o":"m 241 342 l 319 342 q 423 342 469 376 q 514 410 514 486 q 514 567 468 604 q 422 641 321 641 q 266 641 254 632 q 241 624 241 598 l 241 570 z m 337 321 l 241 321 l 241 130 q 241 62 264 42 q 287 23 379 21 l 379 0 l 16 0 l 16 21 q 101 23 123 43 q 145 62 145 130 l 145 532 q 145 599 123 619 q 101 639 16 641 l 16 662 l 318 662 q 465 662 547 616 q 630 570 630 490 q 630 410 553 365 q 477 321 337 321 z"},"|":{"x_min":0,"x_max":500,"ha":500,"o":"m 219 764 l 281 764 l 281 -236 l 219 -236 z"},"t":{"x_min":0,"x_max":345,"ha":345,"o":"m 144 599 l 172 599 l 172 419 l 300 419 l 300 387 l 172 387 l 172 107 q 172 55 185 35 q 197 14 228 14 q 267 14 288 48 q 310 81 310 140 l 310 163 l 331 163 l 331 134 q 331 62 298 24 q 265 -14 204 -14 q 147 -14 122 20 q 96 53 96 131 l 96 387 l 8 387 l 8 412 q 72 422 106 469 q 140 515 144 599 z"},"M":{"x_min":0,"x_max":830,"ha":830,"o":"m 15 662 l 265 662 l 415 153 l 562 662 l 816 662 l 816 641 q 731 639 708 619 q 686 599 686 532 l 686 130 q 686 63 708 43 q 730 23 816 21 l 816 0 l 480 0 l 480 21 q 550 25 570 45 q 591 65 591 130 l 591 635 l 576 635 l 392 0 l 370 0 l 181 635 l 165 635 l 165 222 q 165 100 193 60 q 221 21 300 21 l 300 0 l 15 0 l 15 21 q 90 23 117 62 q 144 102 144 222 l 144 541 q 144 601 121 621 q 97 640 15 641 z"},"g":{"x_min":0,"x_max":488,"ha":488,"o":"m 411 -98 q 411 -61 373 -43 q 335 -26 253 -26 q 157 -26 124 -42 q 92 -58 92 -99 q 92 -140 132 -162 q 172 -184 245 -184 q 324 -184 368 -161 q 411 -139 411 -98 z m 372 343 q 371 351 370 354 q 370 357 370 361 q 370 394 388 413 q 405 432 435 432 q 464 432 485 411 q 506 389 506 360 q 506 337 494 323 q 482 310 462 310 q 446 310 435 320 q 425 331 425 346 q 425 367 441 385 q 458 402 458 403 q 458 407 451 411 q 444 414 433 414 q 413 414 402 399 q 391 383 391 355 q 391 348 395 324 q 399 300 399 283 q 399 211 351 167 q 302 123 224 123 q 202 123 167 129 q 132 135 119 135 q 92 135 76 124 q 61 113 61 94 q 61 70 88 60 q 116 50 183 50 l 271 50 q 363 50 402 22 q 442 -6 442 -69 q 442 -136 390 -170 q 339 -204 236 -204 q 143 -204 89 -177 q 36 -149 36 -102 q 36 -70 62 -48 q 89 -25 133 -19 q 88 -14 61 14 q 34 42 34 84 q 34 117 57 135 q 80 154 121 154 q 125 154 131 153 q 137 153 138 153 q 97 175 75 208 q 54 241 54 282 q 54 346 104 389 q 155 432 231 432 q 278 432 314 408 q 351 385 369 343 z m 310 278 q 310 351 290 382 q 271 413 226 413 q 182 413 162 382 q 143 352 143 278 q 143 203 162 173 q 181 142 226 142 q 271 142 290 173 q 310 204 310 278 z"},"j":{"x_min":0,"x_max":292,"ha":292,"o":"m 207 424 l 207 23 q 207 -90 161 -150 q 115 -210 29 -210 q -23 -210 -54 -183 q -85 -156 -85 -111 q -85 -83 -68 -65 q -51 -47 -26 -47 q -1 -47 13 -61 q 28 -76 28 -99 q 28 -129 -1 -147 q -30 -166 -30 -169 q -30 -177 -14 -184 q 2 -190 24 -190 q 77 -190 103 -153 q 129 -116 129 -39 l 129 296 q 129 362 107 379 q 84 396 -17 399 l -17 419 z m 157 669 q 179 669 194 654 q 209 640 209 618 q 209 596 194 581 q 180 566 157 566 q 135 566 120 581 q 105 596 105 618 q 105 639 120 654 q 136 669 157 669 z"},"i":{"x_min":0,"x_max":262,"ha":262,"o":"m 174 424 l 174 67 q 174 38 182 29 q 191 21 220 21 l 249 21 l 249 0 l 14 0 l 14 21 l 49 21 q 80 21 88 29 q 97 37 97 67 l 97 332 q 97 376 84 387 q 71 398 25 398 l 14 398 l 14 419 z m 124 669 q 146 669 161 654 q 177 640 177 618 q 177 596 162 581 q 146 566 124 566 q 102 566 87 581 q 72 596 72 618 q 72 639 87 654 q 103 669 124 669 z"},"y":{"x_min":0,"x_max":458,"ha":458,"o":"m -16 419 l 228 419 l 228 398 q 179 396 167 390 q 154 384 154 370 q 154 362 165 335 q 166 332 167 329 l 265 86 l 351 290 q 357 305 360 321 q 364 336 364 349 q 364 372 344 385 q 325 397 288 399 l 288 419 l 494 419 l 494 399 q 453 393 426 369 q 399 346 379 300 l 210 -84 q 182 -148 148 -178 q 115 -209 73 -209 q 33 -209 8 -187 q -17 -164 -17 -129 q -17 -101 0 -82 q 17 -64 43 -64 q 67 -64 82 -80 q 97 -95 97 -120 q 97 -140 83 -157 q 69 -174 69 -177 q 69 -182 74 -184 q 78 -186 87 -186 q 122 -186 150 -150 q 179 -114 225 -3 l 91 324 q 72 371 51 384 q 31 396 -16 398 z"},"@":{"x_min":0,"x_max":986,"ha":986,"o":"m 581 164 q 551 112 513 87 q 476 61 430 61 q 369 61 332 106 q 295 151 295 225 q 295 278 319 331 q 343 383 386 425 q 418 456 457 474 q 495 491 532 491 q 575 491 602 467 q 629 443 640 396 l 666 484 l 736 484 l 653 186 q 653 185 652 184 q 644 155 644 133 q 644 110 656 96 q 669 83 690 83 q 707 83 729 92 q 750 100 770 115 q 830 159 861 228 q 893 297 893 382 q 893 450 869 505 q 844 560 794 604 q 750 643 688 664 q 627 685 558 685 q 467 685 391 656 q 316 628 257 571 q 193 509 161 427 q 128 346 128 247 q 128 162 156 98 q 184 35 244 -16 q 300 -63 372 -88 q 443 -112 528 -112 q 607 -112 683 -86 q 758 -61 827 -11 l 842 -29 q 770 -83 689 -110 q 608 -137 522 -137 q 431 -137 355 -115 q 279 -92 221 -47 q 147 8 109 87 q 71 166 71 262 q 71 362 113 448 q 155 535 235 601 q 299 655 377 682 q 455 709 545 709 q 714 709 815 618 q 916 526 916 374 q 916 297 888 229 q 859 161 808 114 q 780 88 748 75 q 715 61 682 61 q 635 61 609 87 q 584 112 581 164 z m 536 471 q 510 471 488 456 q 466 441 443 407 q 408 354 387 293 q 366 231 366 183 q 366 138 386 111 q 406 85 439 85 q 471 85 500 107 q 530 128 557 172 q 585 218 602 271 q 618 324 618 367 q 618 413 595 442 q 572 471 536 471 z"},".":{"x_min":0,"x_max":259,"ha":259,"o":"m 129 90 q 151 90 167 75 q 182 60 182 38 q 182 16 167 1 q 152 -14 129 -14 q 107 -14 92 1 q 77 16 77 38 q 77 59 93 74 q 108 90 129 90 z"},"p":{"x_min":0,"x_max":506,"ha":506,"o":"m 162 71 l 162 -130 q 162 -159 171 -167 q 179 -176 208 -176 l 247 -176 l 247 -197 l 8 -197 l 8 -176 l 37 -176 q 67 -176 76 -168 q 85 -160 85 -130 l 85 332 q 85 376 72 387 q 60 398 13 398 l 2 398 l 2 419 l 160 424 l 160 321 q 178 371 214 401 q 251 430 295 430 q 366 430 421 365 q 475 299 475 210 q 475 118 419 51 q 364 -17 290 -17 q 251 -17 217 6 q 183 30 162 71 z m 283 409 q 231 409 194 349 q 157 290 157 201 q 157 111 193 57 q 229 2 284 2 q 335 2 362 53 q 389 104 389 204 q 389 304 362 357 q 335 409 283 409 z"},"X":{"x_min":0,"x_max":706,"ha":706,"o":"m -14 662 l 358 662 l 358 641 q 354 641 346 641 q 246 638 246 608 q 246 599 250 589 q 254 580 267 561 l 383 392 l 465 491 q 485 516 496 539 q 507 562 507 581 q 507 612 486 625 q 464 638 404 641 l 404 662 l 731 662 l 731 641 l 729 641 q 669 641 611 604 q 553 568 490 490 l 396 374 l 576 120 q 620 58 651 39 q 682 20 728 20 q 730 20 736 21 q 742 21 745 21 l 745 0 l 373 0 l 373 21 l 393 21 q 454 21 476 29 q 498 37 498 57 q 498 66 494 77 q 489 87 477 105 l 336 304 l 232 174 q 214 152 205 130 q 195 107 195 89 q 195 55 223 38 q 250 20 304 20 q 308 20 315 21 q 322 21 326 21 l 326 0 l -34 0 l -34 21 l -32 21 q 26 21 86 62 q 146 103 218 192 l 324 322 l 159 559 q 124 610 91 625 q 58 641 -2 641 l -14 641 z"},"*":{"x_min":0,"x_max":500,"ha":500,"o":"m 260 510 q 288 524 321 566 q 354 608 384 608 q 401 608 412 596 q 423 584 423 566 q 423 548 408 536 q 394 523 366 519 q 362 519 353 518 q 307 514 270 493 q 304 473 355 468 q 370 466 376 465 q 397 459 410 446 q 423 433 423 416 q 423 399 411 388 q 398 376 381 376 q 356 376 323 417 q 289 459 259 476 l 259 471 q 259 439 275 400 q 291 361 291 351 q 291 327 280 314 q 270 301 250 301 q 232 301 220 313 q 208 326 208 345 q 208 361 224 401 q 240 441 240 473 l 240 476 q 212 461 178 419 q 144 377 115 377 q 98 377 87 389 q 76 400 76 419 q 76 437 91 449 q 106 461 134 466 q 138 467 146 467 q 193 472 230 493 q 198 512 147 518 q 131 520 124 521 q 101 527 88 539 q 76 552 76 569 q 76 586 88 597 q 101 609 118 609 q 144 609 177 568 q 211 526 240 510 l 240 515 q 240 545 224 584 q 208 623 208 637 q 208 658 220 672 q 231 685 250 685 q 268 685 280 672 q 292 659 292 640 q 292 625 276 585 q 260 545 260 513 z"},"Y":{"x_min":0,"x_max":650,"ha":650,"o":"m -27 662 l 321 662 l 321 641 q 244 636 226 629 q 207 621 207 603 q 207 593 211 582 q 214 570 224 553 l 358 309 l 463 503 q 473 522 479 541 q 484 560 484 575 q 484 608 457 625 q 431 641 378 641 l 378 662 l 661 662 l 661 642 q 608 638 564 599 q 521 561 475 478 l 370 288 l 370 130 q 370 63 392 43 q 414 23 500 21 l 500 0 l 145 0 l 145 21 q 231 23 253 43 q 275 63 275 130 l 275 275 l 107 575 q 83 617 57 628 q 30 640 -27 641 z"},"c":{"x_min":0,"x_max":410,"ha":410,"o":"m 372 136 l 393 136 q 386 65 343 23 q 299 -18 232 -18 q 148 -18 90 48 q 31 114 31 209 q 31 304 92 370 q 153 437 237 437 q 295 437 334 400 q 373 363 373 308 q 373 270 355 247 q 337 223 309 223 q 285 223 268 239 q 252 255 252 280 q 252 304 265 319 q 278 335 306 344 q 310 345 315 347 q 329 351 329 359 q 329 379 301 398 q 273 418 238 418 q 179 418 148 366 q 117 314 117 216 q 117 108 147 57 q 178 6 242 6 q 293 6 329 42 q 365 78 372 136 z"},"!":{"x_min":0,"x_max":259,"ha":259,"o":"m 129 90 q 151 90 167 75 q 182 60 182 38 q 182 16 167 1 q 152 -14 129 -14 q 107 -14 92 1 q 77 16 77 38 q 77 59 93 74 q 108 90 129 90 z m 141 169 l 119 169 q 117 342 84 526 q 77 570 77 580 q 77 609 92 627 q 106 645 130 645 q 153 645 168 627 q 182 610 182 580 q 182 570 174 526 q 143 342 141 169 z"},"/":{"x_min":0,"x_max":278,"ha":278,"o":"m 253 685 l 307 685 l -6 -91 l -60 -91 z"},"[":{"x_min":0,"x_max":359,"ha":359,"o":"m 114 673 l 295 673 l 295 650 l 174 650 l 174 -136 l 295 -136 l 295 -159 l 114 -159 z"},"6":{"x_min":0,"x_max":519,"ha":519,"o":"m 163 300 q 183 346 218 371 q 253 395 299 395 q 370 395 416 342 q 462 289 462 205 q 462 109 408 49 q 354 -12 272 -12 q 181 -12 126 71 q 71 155 71 295 q 71 452 140 556 q 210 660 310 660 q 367 660 406 628 q 446 596 446 552 q 446 529 430 512 q 414 495 392 495 q 372 495 358 509 q 344 522 344 543 q 344 568 366 586 q 387 605 387 607 q 387 619 364 629 q 341 640 311 640 q 232 640 198 567 q 163 495 163 325 z m 274 366 q 227 366 198 319 q 168 271 168 193 q 168 105 194 57 q 221 10 269 10 q 319 10 344 54 q 369 99 369 187 q 369 283 347 325 q 324 366 274 366 z"},"r":{"x_min":0,"x_max":391,"ha":391,"o":"m 174 191 l 174 67 q 174 38 182 29 q 191 21 220 21 l 259 21 l 259 0 l 20 0 l 20 21 l 49 21 q 80 21 88 29 q 97 37 97 67 l 97 332 q 97 376 84 387 q 71 398 25 398 l 14 398 l 14 419 l 172 423 l 172 304 q 189 361 224 392 q 259 424 304 424 q 342 424 366 403 q 390 382 390 348 q 390 321 375 304 q 360 287 336 287 q 314 287 299 302 q 284 317 284 340 q 284 373 316 388 q 325 392 325 394 q 325 396 315 399 q 305 403 294 403 q 244 403 209 342 q 174 282 174 191 z"},"2":{"x_min":0,"x_max":519,"ha":519,"o":"m 97 78 l 328 78 q 381 78 398 99 q 416 120 428 219 l 450 219 l 427 0 l 44 0 l 44 28 q 63 74 95 118 q 128 162 186 219 q 198 230 220 251 q 342 366 342 478 q 342 557 310 596 q 279 636 216 636 q 163 636 120 603 q 76 569 76 531 q 76 521 83 515 q 89 509 104 505 q 146 494 161 480 q 176 467 176 446 q 176 422 159 406 q 143 390 119 390 q 85 390 63 417 q 41 444 41 487 q 41 560 96 609 q 151 658 234 658 q 326 658 385 607 q 444 556 444 477 q 444 438 424 399 q 405 359 370 328 q 342 302 291 267 q 240 231 224 219 q 177 183 144 146 q 111 109 97 78 z"},"{":{"x_min":0,"x_max":500,"ha":500,"o":"m 413 740 l 413 715 q 344 714 318 688 q 293 662 293 586 l 293 516 q 293 406 263 365 q 233 325 153 310 q 233 295 263 255 q 293 214 293 104 l 293 34 q 293 -42 318 -68 q 343 -93 413 -94 l 413 -119 l 408 -119 q 302 -119 263 -83 q 223 -47 223 50 l 223 154 q 223 231 194 260 q 166 290 86 296 l 86 325 q 167 333 195 361 q 223 390 223 467 l 223 571 q 223 668 263 704 q 302 740 408 740 z"},"9":{"x_min":0,"x_max":519,"ha":519,"o":"m 252 282 q 302 282 332 329 q 362 375 362 455 q 362 543 336 591 q 310 638 261 638 q 210 638 186 592 q 161 545 161 451 q 161 365 183 323 q 206 282 252 282 z m 367 348 q 347 301 312 277 q 278 253 231 253 q 160 253 114 307 q 67 360 67 444 q 67 540 120 600 q 174 660 257 660 q 348 660 403 577 q 458 493 458 353 q 458 196 389 92 q 320 -12 220 -12 q 163 -12 123 20 q 83 51 83 93 q 83 117 99 135 q 116 153 138 153 q 158 153 172 139 q 185 125 185 105 q 185 80 164 62 q 143 43 143 41 q 143 29 166 19 q 188 8 219 8 q 298 8 333 82 q 367 156 367 330 z"}," ":{"x_min":0,"x_max":259,"ha":259,"o":""},"I":{"x_min":0,"x_max":385,"ha":385,"o":"m 15 662 l 370 662 l 370 641 q 285 639 263 619 q 240 599 240 532 l 240 130 q 240 63 262 43 q 284 23 370 21 l 370 0 l 15 0 l 15 21 q 101 23 123 43 q 145 63 145 130 l 145 532 q 145 599 123 619 q 101 639 15 641 z"},"H":{"x_min":0,"x_max":796,"ha":796,"o":"m 16 662 l 370 662 l 370 641 q 286 639 263 619 q 241 600 241 532 l 241 358 l 556 358 l 556 532 q 556 599 534 619 q 511 639 426 641 l 426 662 l 781 662 l 781 641 q 696 639 674 619 q 651 599 651 532 l 651 130 q 651 63 673 43 q 695 23 781 21 l 781 0 l 426 0 l 426 21 q 512 23 534 43 q 556 63 556 130 l 556 337 l 241 337 l 241 130 q 241 62 263 43 q 285 23 370 21 l 370 0 l 16 0 l 16 21 q 101 23 123 43 q 145 62 145 130 l 145 532 q 145 599 123 619 q 101 639 16 641 z"},"4":{"x_min":0,"x_max":519,"ha":519,"o":"m 289 561 l 70 242 l 70 234 l 289 234 z m 331 658 l 373 658 l 373 234 l 492 234 l 492 187 l 373 187 l 373 103 q 373 50 385 35 q 398 21 439 21 l 492 21 l 492 0 l 151 0 l 151 21 l 217 21 q 264 21 276 34 q 289 46 289 94 l 289 187 l 47 187 l 47 246 z"},"~":{"x_min":0,"x_max":833,"ha":833,"o":"m 747 370 l 747 306 q 698 271 651 253 q 604 236 558 236 q 537 236 514 240 q 491 245 465 253 q 450 258 422 268 q 324 303 275 303 q 234 303 190 285 q 146 267 87 225 l 87 290 q 138 326 186 343 q 233 361 276 361 q 303 361 333 355 q 362 349 418 329 q 424 327 435 323 q 515 294 559 294 q 601 294 645 312 q 689 330 747 370 z"},"D":{"x_min":0,"x_max":748,"ha":748,"o":"m 241 121 q 241 53 256 37 q 271 21 333 21 q 470 21 528 92 q 587 163 587 328 q 587 500 525 571 q 464 642 316 642 q 270 642 256 628 q 241 615 241 568 z m 16 662 l 339 662 q 394 662 436 655 q 479 648 512 634 q 596 599 651 513 q 706 427 706 329 q 706 249 665 172 q 623 95 556 52 q 515 25 459 13 q 403 0 325 0 l 16 0 l 16 21 q 101 23 123 43 q 145 62 145 130 l 145 532 q 145 599 123 619 q 101 639 16 641 z"},"^":{"x_min":0,"x_max":1000,"ha":1000,"o":"m 456 714 l 543 714 l 797 438 l 752 438 l 499 651 l 245 438 l 201 438 z"},"0":{"x_min":0,"x_max":519,"ha":519,"o":"m 259 638 q 196 638 169 570 q 143 502 143 324 q 143 146 169 78 q 196 10 259 10 q 322 10 349 78 q 375 146 375 324 q 375 502 349 570 q 322 638 259 638 z m 259 660 q 354 660 413 569 q 471 477 471 324 q 471 171 413 80 q 354 -11 259 -11 q 164 -11 106 80 q 48 171 48 324 q 48 478 106 569 q 164 660 259 660 z"},"F":{"x_min":0,"x_max":676,"ha":676,"o":"m 16 662 l 634 662 l 639 364 l 618 364 q 608 448 589 503 q 569 559 539 589 q 511 617 468 629 q 424 641 334 641 q 271 641 256 625 q 241 608 241 549 l 241 345 l 256 345 q 343 345 383 384 q 422 422 428 514 l 448 514 l 448 157 l 428 157 q 417 252 381 288 q 346 323 262 323 l 241 323 l 241 130 q 241 62 263 43 q 285 23 370 21 l 370 0 l 16 0 l 16 21 q 101 23 123 43 q 145 62 145 130 l 145 532 q 145 599 123 619 q 101 639 16 641 z"},"`":{"x_min":0,"x_max":500,"ha":500,"o":"m 196 638 l 318 484 l 285 484 l 152 599 q 137 612 132 620 q 127 627 127 634 q 127 646 136 655 q 146 664 158 664 q 167 664 175 658 q 184 653 196 638 z"},"k":{"x_min":0,"x_max":505,"ha":505,"o":"m 8 657 l 165 657 l 165 188 l 294 315 q 304 325 309 336 q 315 347 315 356 q 315 377 296 386 q 278 396 227 398 l 227 419 l 487 419 l 487 398 l 480 398 q 449 398 413 378 q 376 359 332 318 l 280 270 l 412 66 q 429 42 447 31 q 465 21 492 21 l 499 21 l 499 0 l 274 0 l 274 21 q 316 21 325 24 q 335 28 335 37 q 335 43 331 53 q 327 63 320 74 l 228 220 l 165 160 l 165 67 q 165 38 173 29 q 182 21 211 21 l 239 21 l 239 0 l 10 0 l 10 21 l 40 21 q 71 21 79 29 q 88 37 88 67 l 88 535 q 88 600 73 617 q 57 635 8 637 z"},"u":{"x_min":0,"x_max":525,"ha":525,"o":"m -12 419 l 159 419 l 159 105 q 159 58 174 36 q 189 14 222 14 q 278 14 314 79 q 350 144 350 250 l 350 324 q 350 369 329 383 q 309 398 244 398 l 234 398 l 234 419 l 427 419 l 427 87 q 427 43 440 32 q 453 21 499 21 l 510 21 l 510 0 l 350 -4 l 350 117 q 330 54 293 22 q 256 -10 204 -10 q 142 -10 112 30 q 82 69 82 150 l 82 322 q 82 366 64 382 q 46 398 -5 398 l -12 398 z"},"]":{"x_min":0,"x_max":359,"ha":359,"o":"m 64 673 l 245 673 l 245 -159 l 64 -159 l 64 -136 l 185 -136 l 185 650 l 64 650 z"},"U":{"x_min":0,"x_max":743,"ha":743,"o":"m 16 662 l 370 662 l 370 641 q 286 639 263 619 q 241 600 241 532 l 241 195 q 241 84 275 42 q 309 1 392 1 q 488 1 530 55 q 572 109 572 237 l 572 506 q 572 575 543 606 q 514 638 448 641 l 448 662 l 712 662 l 712 641 q 653 638 625 605 q 598 571 598 502 l 598 244 q 598 103 548 40 q 497 -22 384 -22 q 311 -22 259 -1 q 207 21 177 63 q 160 88 152 124 q 145 159 145 246 l 145 532 q 145 599 123 619 q 101 639 16 641 z"},"o":{"x_min":0,"x_max":456,"ha":456,"o":"m 228 418 q 173 418 146 366 q 118 314 118 210 q 118 106 146 54 q 173 2 228 2 q 284 2 311 54 q 339 106 339 210 q 339 315 311 366 q 284 418 228 418 z m 228 438 q 257 438 284 428 q 312 418 335 398 q 377 361 401 311 q 425 261 425 210 q 425 158 401 108 q 377 57 335 22 q 312 2 285 -8 q 257 -18 228 -18 q 205 -18 183 -11 q 160 -4 139 9 q 92 40 61 96 q 31 152 31 210 q 31 299 90 369 q 150 438 228 438 z"},"N":{"x_min":0,"x_max":750,"ha":750,"o":"m 31 662 l 209 662 l 599 142 l 599 476 q 599 569 571 605 q 542 641 470 641 l 470 662 l 742 662 l 742 641 q 674 639 647 603 q 620 568 620 478 l 620 -10 l 600 -10 l 175 556 l 175 186 q 175 95 202 58 q 230 21 297 21 l 297 0 l 31 0 l 31 21 q 99 23 126 58 q 153 93 153 184 l 153 585 q 128 617 104 629 q 80 641 38 641 l 31 641 z"},"+":{"x_min":0,"x_max":833,"ha":833,"o":"m 388 596 l 446 596 l 446 327 l 709 327 l 709 270 l 446 270 l 446 0 l 388 0 l 388 270 l 124 270 l 124 327 l 388 327 z"},"G":{"x_min":0,"x_max":694,"ha":694,"o":"m 552 684 l 578 684 l 578 359 l 556 359 q 527 513 472 588 q 417 663 332 663 q 242 663 202 588 q 161 512 161 343 q 161 170 206 84 q 250 -2 339 -2 q 399 -2 440 42 q 482 85 482 148 l 482 200 q 482 250 460 266 q 438 281 334 284 l 334 305 l 695 305 l 695 284 q 612 278 595 262 q 578 247 578 200 l 578 -23 l 557 -23 q 546 29 538 45 q 531 62 520 62 q 517 62 458 20 q 400 -23 336 -23 q 287 -23 239 0 q 192 23 149 68 q 99 121 71 189 q 43 258 43 331 q 43 395 66 458 q 89 521 132 573 q 177 628 228 656 q 279 684 337 684 q 374 684 406 670 q 438 656 471 625 q 477 620 485 612 q 505 592 515 592 q 526 592 535 614 q 544 636 552 684 z"},"q":{"x_min":0,"x_max":490,"ha":490,"o":"m 358 339 l 360 339 l 399 430 l 421 430 l 421 -130 q 421 -160 430 -168 q 438 -176 469 -176 l 504 -176 l 504 -197 l 260 -197 l 260 -176 l 298 -176 q 327 -176 335 -167 q 344 -159 344 -130 l 344 88 q 324 39 291 12 q 257 -14 214 -14 q 136 -14 83 50 q 31 114 31 209 q 31 304 87 369 q 143 434 224 434 q 268 434 302 410 q 336 386 358 339 z m 224 415 q 171 415 144 363 q 117 312 117 212 q 117 107 143 57 q 168 7 222 7 q 277 7 311 64 q 344 121 344 218 q 344 312 313 364 q 281 415 224 415 z"},"d":{"x_min":0,"x_max":506,"ha":506,"o":"m 220 415 q 171 415 144 363 q 117 310 117 213 q 117 112 144 59 q 171 7 223 7 q 278 7 311 65 q 344 124 344 225 q 344 313 311 364 q 277 415 220 415 z m 227 657 l 420 657 l 420 87 q 420 43 433 32 q 446 21 493 21 l 504 21 l 504 0 l 346 -4 l 346 94 q 326 43 290 14 q 254 -14 210 -14 q 139 -14 85 51 q 31 117 31 206 q 31 298 87 365 q 143 433 216 433 q 255 433 289 410 q 323 387 344 345 l 344 535 q 344 602 326 619 q 308 636 239 636 l 227 636 z"},"1":{"x_min":0,"x_max":519,"ha":519,"o":"m 290 660 l 317 660 l 317 96 q 317 49 329 35 q 340 21 390 21 l 452 21 l 452 0 l 80 0 l 80 21 l 152 21 q 207 21 219 34 q 231 47 231 96 l 231 461 q 231 526 203 546 q 175 565 80 567 l 80 590 q 164 595 214 612 q 265 628 290 660 z"},"5":{"x_min":0,"x_max":519,"ha":519,"o":"m 420 654 l 428 643 q 401 603 341 579 q 281 555 204 555 q 191 555 174 556 q 158 557 139 558 l 109 348 q 134 381 176 401 q 217 421 263 421 q 349 421 404 365 q 459 309 459 221 q 459 122 393 55 q 327 -11 229 -11 q 154 -11 108 26 q 61 64 61 122 q 61 156 80 179 q 99 202 127 202 q 149 202 163 187 q 177 172 177 149 q 177 115 143 96 q 110 76 110 71 q 110 49 142 29 q 175 10 220 10 q 291 10 327 59 q 364 109 364 205 q 364 297 333 347 q 302 397 245 397 q 203 397 163 370 q 124 344 101 300 l 81 300 l 129 648 q 169 639 205 634 q 241 630 273 630 q 310 630 346 636 q 383 642 420 654 z"}}}
